%TF.GenerationSoftware,KiCad,Pcbnew,7.0.9*%
%TF.CreationDate,2024-11-16T13:28:32+01:00*%
%TF.ProjectId,ErgoBoard,4572676f-426f-4617-9264-2e6b69636164,rev?*%
%TF.SameCoordinates,Original*%
%TF.FileFunction,Paste,Top*%
%TF.FilePolarity,Positive*%
%FSLAX46Y46*%
G04 Gerber Fmt 4.6, Leading zero omitted, Abs format (unit mm)*
G04 Created by KiCad (PCBNEW 7.0.9) date 2024-11-16 13:28:32*
%MOMM*%
%LPD*%
G01*
G04 APERTURE LIST*
%ADD10R,1.200000X2.500000*%
%ADD11R,2.510000X1.000000*%
%ADD12R,2.600000X2.600000*%
G04 APERTURE END LIST*
D10*
%TO.C,JackL1*%
X251575000Y-118820000D03*
X254575000Y-118820000D03*
X246475000Y-112320000D03*
X247575000Y-118820000D03*
%TD*%
D11*
%TO.C,GG12*%
X226915000Y-50800000D03*
X252375000Y-50800000D03*
X230225000Y-53340000D03*
X255685000Y-53340000D03*
X226915000Y-55880000D03*
X252375000Y-55880000D03*
X230225000Y-58420000D03*
X255685000Y-58420000D03*
X226915000Y-60960000D03*
X252375000Y-60960000D03*
X230225000Y-63500000D03*
X255685000Y-63500000D03*
X226915000Y-66040000D03*
X252375000Y-66040000D03*
X230225000Y-68580000D03*
X255685000Y-68580000D03*
X226915000Y-71120000D03*
X252375000Y-71120000D03*
X230225000Y-73660000D03*
X255685000Y-73660000D03*
X226915000Y-76200000D03*
X252375000Y-76200000D03*
X230225000Y-78740000D03*
X255685000Y-78740000D03*
X226915000Y-81280000D03*
X252375000Y-81280000D03*
X230225000Y-83820000D03*
X255685000Y-83820000D03*
X226915000Y-86360000D03*
X252375000Y-86360000D03*
X230225000Y-88900000D03*
X255685000Y-88900000D03*
X226915000Y-91440000D03*
X252375000Y-91440000D03*
%TD*%
D12*
%TO.C,SW19*%
X111025000Y-116440000D03*
X122575000Y-114240000D03*
%TD*%
%TO.C,SW16*%
X168175000Y-97390000D03*
X179725000Y-95190000D03*
%TD*%
%TO.C,SW2*%
X130075000Y-59290000D03*
X141625000Y-57090000D03*
%TD*%
%TO.C,SW25*%
X187225000Y-135490000D03*
X198775000Y-133290000D03*
%TD*%
%TO.C,SW5*%
X187225000Y-59290000D03*
X198775000Y-57090000D03*
%TD*%
%TO.C,SW10*%
X168175000Y-78340000D03*
X179725000Y-76140000D03*
%TD*%
%TO.C,SW12*%
X206275000Y-78340000D03*
X217825000Y-76140000D03*
%TD*%
%TO.C,SW3*%
X149125000Y-59290000D03*
X160675000Y-57090000D03*
%TD*%
%TO.C,SW24*%
X206275000Y-116440000D03*
X217825000Y-114240000D03*
%TD*%
%TO.C,SW4*%
X168175000Y-59290000D03*
X179725000Y-57090000D03*
%TD*%
%TO.C,SW7*%
X111025000Y-78340000D03*
X122575000Y-76140000D03*
%TD*%
%TO.C,SW23*%
X187225000Y-116440000D03*
X198775000Y-114240000D03*
%TD*%
%TO.C,SW18*%
X206275000Y-97390000D03*
X217825000Y-95190000D03*
%TD*%
%TO.C,SW9*%
X149125000Y-78340000D03*
X160675000Y-76140000D03*
%TD*%
%TO.C,SW21*%
X149125000Y-116440000D03*
X160675000Y-114240000D03*
%TD*%
%TO.C,SW11*%
X187225000Y-78340000D03*
X198775000Y-76140000D03*
%TD*%
%TO.C,SW6*%
X206275000Y-59290000D03*
X217825000Y-57090000D03*
%TD*%
%TO.C,SW15*%
X149125000Y-97390000D03*
X160675000Y-95190000D03*
%TD*%
%TO.C,SW1*%
X111025000Y-59290000D03*
X122575000Y-57090000D03*
%TD*%
%TO.C,SW27*%
X225325000Y-135490000D03*
X236875000Y-133290000D03*
%TD*%
%TO.C,SW26*%
X206275000Y-135490000D03*
X217825000Y-133290000D03*
%TD*%
%TO.C,SW28*%
X225325000Y-154540000D03*
X236875000Y-152340000D03*
%TD*%
%TO.C,SW17*%
X187225000Y-97390000D03*
X198775000Y-95190000D03*
%TD*%
%TO.C,SW13*%
X111025000Y-97390000D03*
X122575000Y-95190000D03*
%TD*%
%TO.C,SW14*%
X130075000Y-97390000D03*
X141625000Y-95190000D03*
%TD*%
%TO.C,SW8*%
X130075000Y-78340000D03*
X141625000Y-76140000D03*
%TD*%
%TO.C,SW20*%
X130075000Y-116440000D03*
X141625000Y-114240000D03*
%TD*%
%TO.C,SW22*%
X168175000Y-116440000D03*
X179725000Y-114240000D03*
%TD*%
M02*
