%TF.GenerationSoftware,KiCad,Pcbnew,7.0.9*%
%TF.CreationDate,2024-11-16T13:28:32+01:00*%
%TF.ProjectId,ErgoBoard,4572676f-426f-4617-9264-2e6b69636164,rev?*%
%TF.SameCoordinates,Original*%
%TF.FileFunction,Soldermask,Top*%
%TF.FilePolarity,Negative*%
%FSLAX46Y46*%
G04 Gerber Fmt 4.6, Leading zero omitted, Abs format (unit mm)*
G04 Created by KiCad (PCBNEW 7.0.9) date 2024-11-16 13:28:32*
%MOMM*%
%LPD*%
G01*
G04 APERTURE LIST*
%ADD10C,1.600000*%
%ADD11O,1.600000X1.600000*%
%ADD12R,1.800000X1.800000*%
%ADD13C,1.800000*%
%ADD14C,1.500000*%
%ADD15R,1.200000X2.500000*%
%ADD16R,2.510000X1.000000*%
%ADD17R,1.600000X1.600000*%
%ADD18C,1.701800*%
%ADD19C,3.000000*%
%ADD20C,3.429000*%
%ADD21R,2.600000X2.600000*%
G04 APERTURE END LIST*
D10*
%TO.C,R4*%
X248920000Y-106045000D03*
D11*
X248920000Y-95885000D03*
%TD*%
%TO.C,R1*%
X233680000Y-106045000D03*
D10*
X233680000Y-95885000D03*
%TD*%
%TO.C,R5*%
X254000000Y-95885000D03*
D11*
X254000000Y-106045000D03*
%TD*%
D10*
%TO.C,R3*%
X243840000Y-95885000D03*
D11*
X243840000Y-106045000D03*
%TD*%
D10*
%TO.C,R2*%
X238760000Y-95885000D03*
D11*
X238760000Y-106045000D03*
%TD*%
D12*
%TO.C,LED3*%
X234950000Y-113030000D03*
D13*
X234950000Y-115570000D03*
%TD*%
D12*
%TO.C,LED2*%
X226060000Y-113030000D03*
D13*
X226060000Y-115570000D03*
%TD*%
D12*
%TO.C,LED1*%
X226060000Y-104775000D03*
D13*
X226060000Y-107315000D03*
%TD*%
D14*
%TO.C,JackR1*%
X249175000Y-115570000D03*
X256175000Y-115570000D03*
%TD*%
%TO.C,JackL1*%
X249175000Y-115570000D03*
X256175000Y-115570000D03*
D15*
X251575000Y-118820000D03*
X254575000Y-118820000D03*
X246475000Y-112320000D03*
X247575000Y-118820000D03*
%TD*%
D16*
%TO.C,GG12*%
X226915000Y-50800000D03*
X252375000Y-50800000D03*
X230225000Y-53340000D03*
X255685000Y-53340000D03*
X226915000Y-55880000D03*
X252375000Y-55880000D03*
X230225000Y-58420000D03*
X255685000Y-58420000D03*
X226915000Y-60960000D03*
X252375000Y-60960000D03*
X230225000Y-63500000D03*
X255685000Y-63500000D03*
X226915000Y-66040000D03*
X252375000Y-66040000D03*
X230225000Y-68580000D03*
X255685000Y-68580000D03*
X226915000Y-71120000D03*
X252375000Y-71120000D03*
X230225000Y-73660000D03*
X255685000Y-73660000D03*
X226915000Y-76200000D03*
X252375000Y-76200000D03*
X230225000Y-78740000D03*
X255685000Y-78740000D03*
X226915000Y-81280000D03*
X252375000Y-81280000D03*
X230225000Y-83820000D03*
X255685000Y-83820000D03*
X226915000Y-86360000D03*
X252375000Y-86360000D03*
X230225000Y-88900000D03*
X255685000Y-88900000D03*
X226915000Y-91440000D03*
X252375000Y-91440000D03*
%TD*%
D17*
%TO.C,D18*%
X218440000Y-83820000D03*
D11*
X218440000Y-91440000D03*
%TD*%
D17*
%TO.C,D16*%
X180340000Y-83820000D03*
D11*
X180340000Y-91440000D03*
%TD*%
D18*
%TO.C,SW19*%
X108800000Y-110490000D03*
D19*
X109300000Y-114240000D03*
D20*
X114300000Y-110490000D03*
D19*
X114300000Y-116440000D03*
X119300000Y-114240000D03*
D18*
X119800000Y-110490000D03*
D21*
X111025000Y-116440000D03*
X122575000Y-114240000D03*
%TD*%
D17*
%TO.C,D8*%
X142240000Y-64770000D03*
D11*
X142240000Y-72390000D03*
%TD*%
D18*
%TO.C,SW16*%
X165950000Y-91440000D03*
D19*
X166450000Y-95190000D03*
D20*
X171450000Y-91440000D03*
D19*
X171450000Y-97390000D03*
X176450000Y-95190000D03*
D18*
X176950000Y-91440000D03*
D21*
X168175000Y-97390000D03*
X179725000Y-95190000D03*
%TD*%
D17*
%TO.C,D11*%
X199390000Y-64770000D03*
D11*
X199390000Y-72390000D03*
%TD*%
D17*
%TO.C,D23*%
X199390000Y-102870000D03*
D11*
X199390000Y-110490000D03*
%TD*%
D17*
%TO.C,D15*%
X161290000Y-83820000D03*
D11*
X161290000Y-91440000D03*
%TD*%
D17*
%TO.C,D26*%
X218440000Y-121920000D03*
D11*
X218440000Y-129540000D03*
%TD*%
D17*
%TO.C,D21*%
X161290000Y-102870000D03*
D11*
X161290000Y-110490000D03*
%TD*%
D18*
%TO.C,SW2*%
X127850000Y-53340000D03*
D19*
X128350000Y-57090000D03*
D20*
X133350000Y-53340000D03*
D19*
X133350000Y-59290000D03*
X138350000Y-57090000D03*
D18*
X138850000Y-53340000D03*
D21*
X130075000Y-59290000D03*
X141625000Y-57090000D03*
%TD*%
D18*
%TO.C,SW25*%
X185000000Y-129540000D03*
D19*
X185500000Y-133290000D03*
D20*
X190500000Y-129540000D03*
D19*
X190500000Y-135490000D03*
X195500000Y-133290000D03*
D18*
X196000000Y-129540000D03*
D21*
X187225000Y-135490000D03*
X198775000Y-133290000D03*
%TD*%
D18*
%TO.C,SW5*%
X185000000Y-53340000D03*
D19*
X185500000Y-57090000D03*
D20*
X190500000Y-53340000D03*
D19*
X190500000Y-59290000D03*
X195500000Y-57090000D03*
D18*
X196000000Y-53340000D03*
D21*
X187225000Y-59290000D03*
X198775000Y-57090000D03*
%TD*%
D17*
%TO.C,D5*%
X199390000Y-45720000D03*
D11*
X199390000Y-53340000D03*
%TD*%
D18*
%TO.C,SW10*%
X165950000Y-72390000D03*
D19*
X166450000Y-76140000D03*
D20*
X171450000Y-72390000D03*
D19*
X171450000Y-78340000D03*
X176450000Y-76140000D03*
D18*
X176950000Y-72390000D03*
D21*
X168175000Y-78340000D03*
X179725000Y-76140000D03*
%TD*%
D18*
%TO.C,SW12*%
X204050000Y-72390000D03*
D19*
X204550000Y-76140000D03*
D20*
X209550000Y-72390000D03*
D19*
X209550000Y-78340000D03*
X214550000Y-76140000D03*
D18*
X215050000Y-72390000D03*
D21*
X206275000Y-78340000D03*
X217825000Y-76140000D03*
%TD*%
D17*
%TO.C,D28*%
X237490000Y-140970000D03*
D11*
X237490000Y-148590000D03*
%TD*%
D18*
%TO.C,SW3*%
X146900000Y-53340000D03*
D19*
X147400000Y-57090000D03*
D20*
X152400000Y-53340000D03*
D19*
X152400000Y-59290000D03*
X157400000Y-57090000D03*
D18*
X157900000Y-53340000D03*
D21*
X149125000Y-59290000D03*
X160675000Y-57090000D03*
%TD*%
D18*
%TO.C,SW24*%
X204050000Y-110490000D03*
D19*
X204550000Y-114240000D03*
D20*
X209550000Y-110490000D03*
D19*
X209550000Y-116440000D03*
X214550000Y-114240000D03*
D18*
X215050000Y-110490000D03*
D21*
X206275000Y-116440000D03*
X217825000Y-114240000D03*
%TD*%
D17*
%TO.C,D27*%
X237490000Y-121920000D03*
D11*
X237490000Y-129540000D03*
%TD*%
D18*
%TO.C,SW4*%
X165950000Y-53340000D03*
D19*
X166450000Y-57090000D03*
D20*
X171450000Y-53340000D03*
D19*
X171450000Y-59290000D03*
X176450000Y-57090000D03*
D18*
X176950000Y-53340000D03*
D21*
X168175000Y-59290000D03*
X179725000Y-57090000D03*
%TD*%
D18*
%TO.C,SW7*%
X108800000Y-72390000D03*
D19*
X109300000Y-76140000D03*
D20*
X114300000Y-72390000D03*
D19*
X114300000Y-78340000D03*
X119300000Y-76140000D03*
D18*
X119800000Y-72390000D03*
D21*
X111025000Y-78340000D03*
X122575000Y-76140000D03*
%TD*%
D18*
%TO.C,SW23*%
X185000000Y-110490000D03*
D19*
X185500000Y-114240000D03*
D20*
X190500000Y-110490000D03*
D19*
X190500000Y-116440000D03*
X195500000Y-114240000D03*
D18*
X196000000Y-110490000D03*
D21*
X187225000Y-116440000D03*
X198775000Y-114240000D03*
%TD*%
D17*
%TO.C,D4*%
X180340000Y-45720000D03*
D11*
X180340000Y-53340000D03*
%TD*%
D17*
%TO.C,D22*%
X180340000Y-102870000D03*
D11*
X180340000Y-110490000D03*
%TD*%
D18*
%TO.C,SW18*%
X204050000Y-91440000D03*
D19*
X204550000Y-95190000D03*
D20*
X209550000Y-91440000D03*
D19*
X209550000Y-97390000D03*
X214550000Y-95190000D03*
D18*
X215050000Y-91440000D03*
D21*
X206275000Y-97390000D03*
X217825000Y-95190000D03*
%TD*%
D17*
%TO.C,D25*%
X199390000Y-121920000D03*
D11*
X199390000Y-129540000D03*
%TD*%
D17*
%TO.C,D7*%
X123190000Y-64770000D03*
D11*
X123190000Y-72390000D03*
%TD*%
D18*
%TO.C,SW9*%
X146900000Y-72390000D03*
D19*
X147400000Y-76140000D03*
D20*
X152400000Y-72390000D03*
D19*
X152400000Y-78340000D03*
X157400000Y-76140000D03*
D18*
X157900000Y-72390000D03*
D21*
X149125000Y-78340000D03*
X160675000Y-76140000D03*
%TD*%
D18*
%TO.C,SW21*%
X146900000Y-110490000D03*
D19*
X147400000Y-114240000D03*
D20*
X152400000Y-110490000D03*
D19*
X152400000Y-116440000D03*
X157400000Y-114240000D03*
D18*
X157900000Y-110490000D03*
D21*
X149125000Y-116440000D03*
X160675000Y-114240000D03*
%TD*%
D18*
%TO.C,SW11*%
X185000000Y-72390000D03*
D19*
X185500000Y-76140000D03*
D20*
X190500000Y-72390000D03*
D19*
X190500000Y-78340000D03*
X195500000Y-76140000D03*
D18*
X196000000Y-72390000D03*
D21*
X187225000Y-78340000D03*
X198775000Y-76140000D03*
%TD*%
D17*
%TO.C,D13*%
X123190000Y-83820000D03*
D11*
X123190000Y-91440000D03*
%TD*%
D18*
%TO.C,SW6*%
X204050000Y-53340000D03*
D19*
X204550000Y-57090000D03*
D20*
X209550000Y-53340000D03*
D19*
X209550000Y-59290000D03*
X214550000Y-57090000D03*
D18*
X215050000Y-53340000D03*
D21*
X206275000Y-59290000D03*
X217825000Y-57090000D03*
%TD*%
D17*
%TO.C,D17*%
X199390000Y-83820000D03*
D11*
X199390000Y-91440000D03*
%TD*%
D17*
%TO.C,D20*%
X142240000Y-102870000D03*
D11*
X142240000Y-110490000D03*
%TD*%
D17*
%TO.C,D1*%
X123190000Y-45720000D03*
D11*
X123190000Y-53340000D03*
%TD*%
D18*
%TO.C,SW15*%
X146900000Y-91440000D03*
D19*
X147400000Y-95190000D03*
D20*
X152400000Y-91440000D03*
D19*
X152400000Y-97390000D03*
X157400000Y-95190000D03*
D18*
X157900000Y-91440000D03*
D21*
X149125000Y-97390000D03*
X160675000Y-95190000D03*
%TD*%
D17*
%TO.C,D2*%
X142240000Y-45720000D03*
D11*
X142240000Y-53340000D03*
%TD*%
D18*
%TO.C,SW1*%
X108800000Y-53340000D03*
D19*
X109300000Y-57090000D03*
D20*
X114300000Y-53340000D03*
D19*
X114300000Y-59290000D03*
X119300000Y-57090000D03*
D18*
X119800000Y-53340000D03*
D21*
X111025000Y-59290000D03*
X122575000Y-57090000D03*
%TD*%
D18*
%TO.C,SW27*%
X223100000Y-129540000D03*
D19*
X223600000Y-133290000D03*
D20*
X228600000Y-129540000D03*
D19*
X228600000Y-135490000D03*
X233600000Y-133290000D03*
D18*
X234100000Y-129540000D03*
D21*
X225325000Y-135490000D03*
X236875000Y-133290000D03*
%TD*%
D17*
%TO.C,D19*%
X123190000Y-102870000D03*
D11*
X123190000Y-110490000D03*
%TD*%
D17*
%TO.C,D6*%
X218440000Y-45720000D03*
D11*
X218440000Y-53340000D03*
%TD*%
D17*
%TO.C,D9*%
X161290000Y-64770000D03*
D11*
X161290000Y-72390000D03*
%TD*%
D17*
%TO.C,D14*%
X142240000Y-83820000D03*
D11*
X142240000Y-91440000D03*
%TD*%
D18*
%TO.C,SW26*%
X204050000Y-129540000D03*
D19*
X204550000Y-133290000D03*
D20*
X209550000Y-129540000D03*
D19*
X209550000Y-135490000D03*
X214550000Y-133290000D03*
D18*
X215050000Y-129540000D03*
D21*
X206275000Y-135490000D03*
X217825000Y-133290000D03*
%TD*%
D18*
%TO.C,SW28*%
X223100000Y-148590000D03*
D19*
X223600000Y-152340000D03*
D20*
X228600000Y-148590000D03*
D19*
X228600000Y-154540000D03*
X233600000Y-152340000D03*
D18*
X234100000Y-148590000D03*
D21*
X225325000Y-154540000D03*
X236875000Y-152340000D03*
%TD*%
D18*
%TO.C,SW17*%
X185000000Y-91440000D03*
D19*
X185500000Y-95190000D03*
D20*
X190500000Y-91440000D03*
D19*
X190500000Y-97390000D03*
X195500000Y-95190000D03*
D18*
X196000000Y-91440000D03*
D21*
X187225000Y-97390000D03*
X198775000Y-95190000D03*
%TD*%
D17*
%TO.C,D24*%
X218440000Y-102870000D03*
D11*
X218440000Y-110490000D03*
%TD*%
D17*
%TO.C,D12*%
X218440000Y-64770000D03*
D11*
X218440000Y-72390000D03*
%TD*%
D17*
%TO.C,D3*%
X161290000Y-45720000D03*
D11*
X161290000Y-53340000D03*
%TD*%
D17*
%TO.C,D10*%
X180340000Y-64770000D03*
D11*
X180340000Y-72390000D03*
%TD*%
D18*
%TO.C,SW13*%
X108800000Y-91440000D03*
D19*
X109300000Y-95190000D03*
D20*
X114300000Y-91440000D03*
D19*
X114300000Y-97390000D03*
X119300000Y-95190000D03*
D18*
X119800000Y-91440000D03*
D21*
X111025000Y-97390000D03*
X122575000Y-95190000D03*
%TD*%
D18*
%TO.C,SW14*%
X127850000Y-91440000D03*
D19*
X128350000Y-95190000D03*
D20*
X133350000Y-91440000D03*
D19*
X133350000Y-97390000D03*
X138350000Y-95190000D03*
D18*
X138850000Y-91440000D03*
D21*
X130075000Y-97390000D03*
X141625000Y-95190000D03*
%TD*%
D18*
%TO.C,SW8*%
X127850000Y-72390000D03*
D19*
X128350000Y-76140000D03*
D20*
X133350000Y-72390000D03*
D19*
X133350000Y-78340000D03*
X138350000Y-76140000D03*
D18*
X138850000Y-72390000D03*
D21*
X130075000Y-78340000D03*
X141625000Y-76140000D03*
%TD*%
D18*
%TO.C,SW20*%
X127850000Y-110490000D03*
D19*
X128350000Y-114240000D03*
D20*
X133350000Y-110490000D03*
D19*
X133350000Y-116440000D03*
X138350000Y-114240000D03*
D18*
X138850000Y-110490000D03*
D21*
X130075000Y-116440000D03*
X141625000Y-114240000D03*
%TD*%
D18*
%TO.C,SW22*%
X165950000Y-110490000D03*
D19*
X166450000Y-114240000D03*
D20*
X171450000Y-110490000D03*
D19*
X171450000Y-116440000D03*
X176450000Y-114240000D03*
D18*
X176950000Y-110490000D03*
D21*
X168175000Y-116440000D03*
X179725000Y-114240000D03*
%TD*%
M02*
